<?xml version="1.0" encoding="UTF-8"?>
<svg width="16px" height="16px" viewBox="0 0 16 16" version="1.1" xmlns="http://www.w3.org/2000/svg" xmlns:xlink="http://www.w3.org/1999/xlink">
    <title>消息通知</title>
    <g id="智汇云后台管理" stroke="none" stroke-width="1" fill="none" fill-rule="evenodd">
        <g id="09控制台1920-容器" transform="translate(-17, -68)">
            <g id="菜单样式1" transform="translate(0, 57)">
                <g id="消息通知" transform="translate(8, 0)">
                    <g id="编组-2" transform="translate(9, 0)">
                        <g id="消息通知" transform="translate(0, 11)">
                            <rect id="矩形" fill="#D8D8D8" opacity="0" x="0" y="0" width="16" height="16"></rect>
                            <path d="M12.725,13.95 C13.0149495,13.95 13.25,14.1850505 13.25,14.475 C13.25,14.7649495 13.0149495,15 12.725,15 L3.275,15 C2.98505051,15 2.75,14.7649495 2.75,14.475 C2.75,14.1850505 2.98505051,13.95 3.275,13.95 L12.725,13.95 Z M13.25,1 C14.2164983,1 15,1.78350169 15,2.75 L15,10.625 C15,11.5914983 14.2164983,12.375 13.25,12.375 L2.75,12.375 C1.78350169,12.375 1,11.5914983 1,10.625 L1,2.75 C1,1.78350169 1.78350169,1 2.75,1 L13.25,1 Z M13.25,2.05 L2.75,2.05 C2.36340068,2.05 2.05,2.36340068 2.05,2.75 L2.05,10.625 C2.05,11.0115993 2.36340068,11.325 2.75,11.325 L13.25,11.325 C13.6365993,11.325 13.95,11.0115993 13.95,10.625 L13.95,2.75 C13.95,2.36340068 13.6365993,2.05 13.25,2.05 Z M10.1,7.1246948 C10.3899495,7.1246948 10.625,7.35974531 10.625,7.6496948 C10.625,7.9396443 10.3899495,8.1746948 10.1,8.1746948 L5.9,8.1746948 C5.61005051,8.1746948 5.375,7.9396443 5.375,7.6496948 C5.375,7.35974531 5.61005051,7.1246948 5.9,7.1246948 L10.1,7.1246948 Z M10.1,4.4996948 C10.3899495,4.4996948 10.625,4.73474531 10.625,5.0246948 C10.625,5.3146443 10.3899495,5.5496948 10.1,5.5496948 L5.9,5.5496948 C5.61005051,5.5496948 5.375,5.3146443 5.375,5.0246948 C5.375,4.73474531 5.61005051,4.4996948 5.9,4.4996948 L10.1,4.4996948 Z" id="形状" fill="#DFDFDF" fill-rule="nonzero"></path>
                        </g>
                    </g>
                </g>
            </g>
        </g>
    </g>
</svg>